{"glyphs":{"0":{"ha":694,"x_min":87,"x_max":564,"o":"m 174 0 l 174 87 l 87 87 l 87 521 l 174 521 l 174 608 l 434 608 l 434 521 l 260 521 l 260 87 l 434 87 l 434 0 l 174 0 m 434 87 l 434 521 l 564 521 l 564 87 l 434 87 z "},"1":{"ha":521,"x_min":87,"x_max":434,"o":"m 87 0 l 87 87 l 174 87 l 174 434 l 87 434 l 87 521 l 174 521 l 174 608 l 347 608 l 347 87 l 434 87 l 434 0 l 87 0 z "},"2":{"ha":694,"x_min":87,"x_max":608,"o":"m 87 0 l 87 87 l 174 87 l 174 174 l 260 174 l 260 260 l 347 260 l 347 347 l 434 347 l 434 521 l 260 521 l 260 347 l 87 347 l 87 521 l 174 521 l 174 608 l 521 608 l 521 521 l 608 521 l 608 347 l 521 347 l 521 260 l 434 260 l 434 174 l 347 174 l 347 87 l 608 87 l 608 0 l 87 0 z "},"3":{"ha":694,"x_min":87,"x_max":608,"o":"m 174 0 l 174 87 l 87 87 l 87 174 l 260 174 l 260 87 l 434 87 l 434 260 l 174 260 l 174 347 l 434 347 l 434 521 l 260 521 l 260 434 l 87 434 l 87 521 l 174 521 l 174 608 l 521 608 l 521 521 l 608 521 l 608 347 l 521 347 l 521 260 l 608 260 l 608 87 l 521 87 l 521 0 l 174 0 z "},"4":{"ha":694,"x_min":87,"x_max":608,"o":"m 347 0 l 347 174 l 87 174 l 87 608 l 260 608 l 260 260 l 347 260 l 347 608 l 521 608 l 521 260 l 608 260 l 608 174 l 521 174 l 521 0 l 347 0 z "},"5":{"ha":608,"x_min":87,"x_max":521,"o":"m 87 0 l 87 174 l 260 174 l 260 87 l 347 87 l 347 260 l 87 260 l 87 608 l 521 608 l 521 521 l 260 521 l 260 347 l 521 347 l 521 0 l 87 0 z "},"6":{"ha":608,"x_min":87,"x_max":521,"o":"m 174 0 l 174 87 l 87 87 l 87 521 l 174 521 l 174 608 l 434 608 l 434 521 l 521 521 l 521 434 l 391 434 l 391 521 l 260 521 l 260 347 l 434 347 l 434 260 l 521 260 l 521 87 l 434 87 l 434 0 l 174 0 m 391 87 l 391 260 l 260 260 l 260 87 l 391 87 z "},"7":{"ha":694,"x_min":130,"x_max":564,"o":"m 260 0 l 260 174 l 347 174 l 347 347 l 434 347 l 434 521 l 260 521 l 260 434 l 130 434 l 130 608 l 564 608 l 564 347 l 477 347 l 477 174 l 391 174 l 391 0 l 260 0 z "},"8":{"ha":694,"x_min":130,"x_max":564,"o":"m 174 0 l 174 87 l 130 87 l 130 260 l 174 260 l 174 347 l 130 347 l 130 521 l 174 521 l 174 608 l 521 608 l 521 521 l 564 521 l 564 347 l 521 347 l 521 260 l 564 260 l 564 87 l 521 87 l 521 0 l 174 0 m 434 347 l 434 521 l 260 521 l 260 347 l 434 347 m 434 87 l 434 260 l 260 260 l 260 87 l 434 87 z "},"9":{"ha":608,"x_min":43,"x_max":521,"o":"m 347 87 l 347 260 l 174 260 l 174 347 l 43 347 l 43 521 l 174 521 l 174 347 l 347 347 l 347 521 l 174 521 l 174 608 l 434 608 l 434 521 l 521 521 l 521 87 l 434 87 l 434 0 l 174 0 l 174 87 l 87 87 l 87 174 l 174 174 l 174 87 l 347 87 z "},"¤":{"ha":434,"x_min":0,"x_max":434,"o":"m 0 521 l 68 521 l 68 0 l 0 0 l 0 521 m 0 68 l 366 68 l 366 0 l 0 0 l 0 68 m 0 521 l 366 521 l 366 453 l 0 453 l 0 521 m 366 521 l 434 521 l 434 0 l 366 0 l 366 521 m 132 107 l 132 151 l 110 151 l 110 237 l 132 237 l 132 281 l 110 281 l 110 368 l 132 368 l 132 411 l 305 411 l 305 368 l 327 368 l 327 281 l 305 281 l 305 237 l 327 237 l 327 151 l 305 151 l 305 107 l 132 107 m 262 281 l 262 368 l 175 368 l 175 281 l 262 281 m 262 151 l 262 237 l 175 237 l 175 151 l 262 151 m 134 107 l 134 151 l 113 151 l 113 237 l 134 237 l 134 281 l 113 281 l 113 368 l 134 368 l 134 411 l 308 411 l 308 368 l 330 368 l 330 281 l 308 281 l 308 237 l 330 237 l 330 151 l 308 151 l 308 107 l 134 107 m 264 281 l 264 368 l 178 368 l 178 281 l 264 281 m 264 151 l 264 237 l 178 237 l 178 151 l 264 151 z "},"\u0000":{"ha":0,"x_min":0,"x_max":0,"o":""},"\r":{"ha":347,"x_min":0,"x_max":0,"o":""}," ":{"ha":260,"x_min":0,"x_max":0,"o":""},"!":{"ha":347,"x_min":87,"x_max":260,"o":"m 87 174 l 87 608 l 260 608 l 260 174 l 87 174 m 87 0 l 87 87 l 260 87 l 260 0 l 87 0 z "},"\"":{"ha":608,"x_min":87,"x_max":521,"o":"m 87 347 l 87 608 l 260 608 l 260 347 l 87 347 m 347 347 l 347 608 l 521 608 l 521 347 l 347 347 z "},"#":{"ha":781,"x_min":87,"x_max":694,"o":"m 174 0 l 174 130 l 87 130 l 87 217 l 174 217 l 174 391 l 87 391 l 87 477 l 174 477 l 174 608 l 304 608 l 304 477 l 477 477 l 477 608 l 608 608 l 608 477 l 694 477 l 694 391 l 608 391 l 608 217 l 694 217 l 694 130 l 608 130 l 608 0 l 479 0 l 479 130 l 304 130 l 304 0 l 174 0 m 477 217 l 477 391 l 304 391 l 304 217 l 477 217 z "},"$":{"ha":694,"x_min":87,"x_max":608,"o":"m 434 87 l 434 260 l 174 260 l 174 347 l 87 347 l 87 521 l 174 521 l 174 608 l 260 608 l 260 738 l 434 738 l 434 608 l 521 608 l 521 521 l 260 521 l 260 347 l 521 347 l 521 260 l 608 260 l 608 87 l 521 87 l 521 0 l 434 0 l 434 -130 l 260 -130 l 260 0 l 174 0 l 174 87 l 87 87 l 87 174 l 174 174 l 174 87 l 434 87 m 521 434 l 521 521 l 608 521 l 608 434 l 521 434 z "},"%":{"ha":694,"x_min":0,"x_max":608,"o":"m 0 347 l 0 521 l 174 521 l 174 347 l 0 347 m 43 0 l 43 87 l 87 87 l 87 174 l 174 174 l 174 260 l 260 260 l 260 347 l 347 347 l 347 434 l 434 434 l 434 521 l 564 521 l 564 434 l 521 434 l 521 347 l 434 347 l 434 260 l 347 260 l 347 174 l 260 174 l 260 87 l 174 87 l 174 0 l 43 0 m 434 0 l 434 174 l 608 174 l 608 0 l 434 0 z "},"&":{"ha":608,"x_min":0,"x_max":608,"o":"m 87 0 l 87 87 l 0 87 l 0 174 l 87 174 l 87 260 l 174 260 l 174 87 l 347 87 l 347 174 l 260 174 l 260 260 l 174 260 l 174 347 l 87 347 l 87 521 l 174 521 l 174 608 l 347 608 l 347 521 l 260 521 l 260 347 l 347 347 l 347 260 l 434 260 l 434 174 l 521 174 l 521 87 l 434 87 l 434 0 l 87 0 m 347 347 l 347 521 l 434 521 l 434 347 l 347 347 m 521 174 l 521 347 l 608 347 l 608 174 l 521 174 m 521 0 l 521 87 l 608 87 l 608 0 l 521 0 z "},"'":{"ha":347,"x_min":87,"x_max":260,"o":"m 87 347 l 87 608 l 260 608 l 260 347 l 87 347 z "},"(":{"ha":434,"x_min":0,"x_max":347,"o":"m 174 -87 l 174 0 l 87 0 l 87 87 l 0 87 l 0 521 l 87 521 l 87 608 l 174 608 l 174 694 l 347 694 l 347 608 l 260 608 l 260 521 l 174 521 l 174 87 l 260 87 l 260 0 l 347 0 l 347 -87 l 174 -87 z "},")":{"ha":434,"x_min":0,"x_max":347,"o":"m 0 -87 l 0 0 l 87 0 l 87 87 l 174 87 l 174 521 l 87 521 l 87 608 l 0 608 l 0 694 l 174 694 l 174 608 l 260 608 l 260 521 l 347 521 l 347 87 l 260 87 l 260 0 l 174 0 l 174 -87 l 0 -87 z "},"*":{"ha":434,"x_min":87,"x_max":347,"o":"m 87 521 l 87 608 l 174 608 l 174 521 l 87 521 m 260 521 l 260 608 l 347 608 l 347 521 l 260 521 m 174 434 l 174 521 l 260 521 l 260 434 l 174 434 m 87 347 l 87 434 l 174 434 l 174 347 l 87 347 m 260 347 l 260 434 l 347 434 l 347 347 l 260 347 z "},"+":{"ha":608,"x_min":87,"x_max":521,"o":"m 260 87 l 260 260 l 87 260 l 87 347 l 260 347 l 260 521 l 347 521 l 347 347 l 521 347 l 521 260 l 347 260 l 347 87 l 260 87 z "},",":{"ha":347,"x_min":87,"x_max":260,"o":"m 87 -87 l 87 174 l 260 174 l 260 0 l 174 0 l 174 -87 l 87 -87 z "},"-":{"ha":608,"x_min":87,"x_max":521,"o":"m 87 174 l 87 260 l 521 260 l 521 174 l 87 174 z "},".":{"ha":347,"x_min":87,"x_max":260,"o":"m 87 0 l 87 174 l 260 174 l 260 0 l 87 0 z "},"/":{"ha":608,"x_min":87,"x_max":521,"o":"m 434 434 l 434 521 l 521 521 l 521 434 l 434 434 m 347 347 l 347 434 l 434 434 l 434 347 l 347 347 m 260 260 l 260 347 l 347 347 l 347 260 l 260 260 m 174 174 l 174 260 l 260 260 l 260 174 l 174 174 m 87 87 l 87 174 l 174 174 l 174 87 l 87 87 z "},":":{"ha":347,"x_min":87,"x_max":260,"o":"m 87 347 l 87 521 l 260 521 l 260 347 l 87 347 m 87 87 l 87 260 l 260 260 l 260 87 l 87 87 z "},";":{"ha":347,"x_min":87,"x_max":260,"o":"m 87 347 l 87 521 l 260 521 l 260 347 l 87 347 m 174 0 l 174 87 l 87 87 l 87 260 l 260 260 l 260 0 l 174 0 m 87 -87 l 87 0 l 174 0 l 174 -87 l 87 -87 z "},"<":{"ha":521,"x_min":87,"x_max":434,"o":"m 260 87 l 260 174 l 174 174 l 174 260 l 87 260 l 87 347 l 174 347 l 174 434 l 260 434 l 260 521 l 434 521 l 434 434 l 347 434 l 347 347 l 260 347 l 260 260 l 347 260 l 347 174 l 434 174 l 434 87 l 260 87 z "},"=":{"ha":694,"x_min":87,"x_max":608,"o":"m 87 260 l 87 347 l 608 347 l 608 260 l 87 260 m 87 87 l 87 174 l 608 174 l 608 87 l 87 87 z "},">":{"ha":608,"x_min":174,"x_max":521,"o":"m 174 87 l 174 174 l 260 174 l 260 260 l 347 260 l 347 347 l 260 347 l 260 434 l 174 434 l 174 521 l 347 521 l 347 434 l 434 434 l 434 347 l 521 347 l 521 260 l 434 260 l 434 174 l 347 174 l 347 87 l 174 87 z "},"?":{"ha":694,"x_min":87,"x_max":608,"o":"m 260 174 l 260 260 l 347 260 l 347 347 l 434 347 l 434 521 l 260 521 l 260 347 l 87 347 l 87 521 l 174 521 l 174 608 l 521 608 l 521 521 l 608 521 l 608 347 l 521 347 l 521 260 l 434 260 l 434 174 l 260 174 m 260 0 l 260 87 l 434 87 l 434 0 l 260 0 z "},"@":{"ha":868,"x_min":43,"x_max":738,"o":"m 174 521 l 174 608 l 608 608 l 608 521 l 174 521 m 43 87 l 43 521 l 174 521 l 174 87 l 43 87 m 608 260 l 608 521 l 738 521 l 738 260 l 608 260 m 260 174 l 260 434 l 434 434 l 434 347 l 347 347 l 347 260 l 434 260 l 434 347 l 521 347 l 521 260 l 608 260 l 608 174 l 260 174 m 174 0 l 174 87 l 521 87 l 521 0 l 174 0 z "},"A":{"ha":694,"x_min":87,"x_max":608,"o":"m 87 0 l 87 521 l 174 521 l 174 608 l 521 608 l 521 521 l 608 521 l 608 0 l 434 0 l 434 260 l 260 260 l 260 0 l 87 0 m 434 347 l 434 521 l 260 521 l 260 347 l 434 347 z "},"B":{"ha":694,"x_min":87,"x_max":608,"o":"m 87 0 l 87 608 l 521 608 l 521 521 l 608 521 l 608 347 l 521 347 l 521 260 l 608 260 l 608 87 l 521 87 l 521 0 l 87 0 m 434 347 l 434 521 l 260 521 l 260 347 l 434 347 m 434 87 l 434 260 l 260 260 l 260 87 l 434 87 z "},"C":{"ha":694,"x_min":87,"x_max":608,"o":"m 174 0 l 174 87 l 87 87 l 87 521 l 174 521 l 174 608 l 521 608 l 521 521 l 260 521 l 260 87 l 521 87 l 521 0 l 174 0 m 521 434 l 521 521 l 608 521 l 608 434 l 521 434 m 521 87 l 521 174 l 608 174 l 608 87 l 521 87 z "},"D":{"ha":694,"x_min":87,"x_max":608,"o":"m 87 0 l 87 608 l 521 608 l 521 521 l 608 521 l 608 87 l 521 87 l 521 0 l 87 0 m 434 87 l 434 521 l 260 521 l 260 87 l 434 87 z "},"E":{"ha":694,"x_min":87,"x_max":608,"o":"m 87 0 l 87 608 l 608 608 l 608 521 l 260 521 l 260 347 l 521 347 l 521 260 l 260 260 l 260 87 l 608 87 l 608 0 l 87 0 z "},"F":{"ha":694,"x_min":87,"x_max":608,"o":"m 87 0 l 87 608 l 608 608 l 608 521 l 260 521 l 260 347 l 521 347 l 521 260 l 260 260 l 260 0 l 87 0 z "},"G":{"ha":694,"x_min":87,"x_max":608,"o":"m 174 0 l 174 87 l 87 87 l 87 521 l 174 521 l 174 608 l 521 608 l 521 521 l 260 521 l 260 87 l 434 87 l 434 260 l 347 260 l 347 347 l 608 347 l 608 87 l 521 87 l 521 0 l 174 0 m 521 434 l 521 521 l 608 521 l 608 434 l 521 434 z "},"H":{"ha":694,"x_min":87,"x_max":608,"o":"m 87 0 l 87 608 l 260 608 l 260 347 l 434 347 l 434 608 l 608 608 l 608 0 l 434 0 l 434 260 l 260 260 l 260 0 l 87 0 z "},"I":{"ha":434,"x_min":0,"x_max":347,"o":"m 0 0 l 0 87 l 87 87 l 87 521 l 0 521 l 0 608 l 347 608 l 347 521 l 260 521 l 260 87 l 347 87 l 347 0 l 0 0 z "},"J":{"ha":694,"x_min":87,"x_max":608,"o":"m 434 87 l 434 608 l 608 608 l 608 87 l 521 87 l 521 0 l 174 0 l 174 87 l 87 87 l 87 174 l 174 174 l 174 87 l 434 87 z "},"K":{"ha":694,"x_min":87,"x_max":608,"o":"m 87 0 l 87 608 l 260 608 l 260 434 l 347 434 l 347 521 l 434 521 l 434 608 l 608 608 l 608 521 l 521 521 l 521 434 l 434 434 l 434 347 l 347 347 l 347 260 l 434 260 l 434 174 l 521 174 l 521 87 l 608 87 l 608 0 l 434 0 l 434 87 l 347 87 l 347 174 l 260 174 l 260 0 l 87 0 z "},"L":{"ha":694,"x_min":87,"x_max":608,"o":"m 87 0 l 87 608 l 260 608 l 260 130 l 608 130 l 608 0 l 87 0 z "},"M":{"ha":781,"x_min":87,"x_max":694,"o":"m 87 0 l 87 608 l 608 608 l 608 521 l 694 521 l 694 0 l 521 0 l 521 521 l 434 521 l 434 174 l 347 174 l 347 521 l 260 521 l 260 0 l 87 0 z "},"N":{"ha":694,"x_min":87,"x_max":608,"o":"m 87 0 l 87 608 l 260 608 l 260 521 l 347 521 l 347 434 l 434 434 l 434 347 l 521 347 l 521 608 l 608 608 l 608 0 l 521 0 l 521 87 l 434 87 l 434 174 l 347 174 l 347 260 l 260 260 l 260 347 l 174 347 l 174 0 l 87 0 z "},"O":{"ha":694,"x_min":87,"x_max":608,"o":"m 174 0 l 174 87 l 87 87 l 87 521 l 174 521 l 174 608 l 521 608 l 521 521 l 608 521 l 608 87 l 521 87 l 521 0 l 174 0 m 434 87 l 434 521 l 260 521 l 260 87 l 434 87 z "},"P":{"ha":694,"x_min":87,"x_max":608,"o":"m 87 0 l 87 608 l 521 608 l 521 521 l 260 521 l 260 347 l 521 347 l 521 260 l 260 260 l 260 0 l 87 0 m 521 347 l 521 521 l 608 521 l 608 347 l 521 347 z "},"Q":{"ha":694,"x_min":87,"x_max":608,"o":"m 434 -87 l 434 0 l 174 0 l 174 87 l 87 87 l 87 521 l 174 521 l 174 608 l 521 608 l 521 521 l 608 521 l 608 87 l 521 87 l 521 0 l 608 0 l 608 -87 l 434 -87 m 434 87 l 434 521 l 260 521 l 260 87 l 434 87 z "},"R":{"ha":694,"x_min":87,"x_max":608,"o":"m 87 0 l 87 608 l 521 608 l 521 521 l 608 521 l 608 347 l 521 347 l 521 260 l 608 260 l 608 0 l 434 0 l 434 260 l 260 260 l 260 0 l 87 0 m 434 347 l 434 521 l 260 521 l 260 347 l 434 347 z "},"S":{"ha":694,"x_min":87,"x_max":608,"o":"m 434 87 l 434 260 l 174 260 l 174 347 l 87 347 l 87 521 l 174 521 l 174 608 l 521 608 l 521 521 l 260 521 l 260 347 l 521 347 l 521 260 l 608 260 l 608 87 l 521 87 l 521 0 l 174 0 l 174 87 l 87 87 l 87 174 l 174 174 l 174 87 l 434 87 m 521 434 l 521 521 l 608 521 l 608 434 l 521 434 z "},"T":{"ha":694,"x_min":87,"x_max":608,"o":"m 260 0 l 260 477 l 87 477 l 87 608 l 608 608 l 608 477 l 434 477 l 434 0 l 260 0 z "},"U":{"ha":694,"x_min":87,"x_max":608,"o":"m 174 0 l 174 87 l 87 87 l 87 608 l 260 608 l 260 87 l 434 87 l 434 608 l 608 608 l 608 87 l 521 87 l 521 0 l 174 0 z "},"V":{"ha":694,"x_min":87,"x_max":608,"o":"m 87 0 l 87 608 l 260 608 l 260 87 l 434 87 l 434 0 l 87 0 m 434 87 l 434 608 l 608 608 l 608 174 l 521 174 l 521 87 l 434 87 z "},"W":{"ha":781,"x_min":87,"x_max":694,"o":"m 87 0 l 87 608 l 260 608 l 260 87 l 347 87 l 347 391 l 434 391 l 434 87 l 521 87 l 521 608 l 694 608 l 694 87 l 608 87 l 608 0 l 87 0 z "},"X":{"ha":694,"x_min":87,"x_max":608,"o":"m 87 0 l 87 260 l 174 260 l 174 347 l 87 347 l 87 608 l 260 608 l 260 347 l 434 347 l 434 608 l 608 608 l 608 347 l 521 347 l 521 260 l 608 260 l 608 0 l 434 0 l 434 260 l 260 260 l 260 0 l 87 0 z "},"Y":{"ha":694,"x_min":87,"x_max":608,"o":"m 260 0 l 260 260 l 174 260 l 174 347 l 87 347 l 87 608 l 260 608 l 260 347 l 434 347 l 434 608 l 608 608 l 608 347 l 521 347 l 521 260 l 434 260 l 434 0 l 260 0 z "},"Z":{"ha":694,"x_min":87,"x_max":608,"o":"m 87 0 l 87 260 l 174 260 l 174 347 l 260 347 l 260 434 l 347 434 l 347 521 l 87 521 l 87 608 l 608 608 l 608 434 l 521 434 l 521 347 l 434 347 l 434 260 l 347 260 l 347 174 l 260 174 l 260 87 l 608 87 l 608 0 l 87 0 z "},"[":{"ha":347,"x_min":0,"x_max":260,"o":"m 0 -87 l 0 694 l 260 694 l 260 608 l 130 608 l 130 0 l 260 0 l 260 -87 l 0 -87 z "},"\\":{"ha":608,"x_min":87,"x_max":521,"o":"m 87 434 l 87 521 l 174 521 l 174 434 l 87 434 m 174 347 l 174 434 l 260 434 l 260 347 l 174 347 m 260 260 l 260 347 l 347 347 l 347 260 l 260 260 m 347 174 l 347 260 l 434 260 l 434 174 l 347 174 m 434 87 l 434 174 l 521 174 l 521 87 l 434 87 z "},"]":{"ha":347,"x_min":0,"x_max":260,"o":"m 0 -87 l 0 0 l 130 0 l 130 608 l 0 608 l 0 694 l 260 694 l 260 -87 l 0 -87 z "},"^":{"ha":608,"x_min":87,"x_max":521,"o":"m 260 521 l 260 608 l 347 608 l 347 521 l 260 521 m 174 434 l 174 521 l 260 521 l 260 434 l 174 434 m 347 434 l 347 521 l 434 521 l 434 434 l 347 434 m 87 347 l 87 434 l 174 434 l 174 347 l 87 347 m 434 347 l 434 434 l 521 434 l 521 347 l 434 347 z "},"_":{"ha":694,"x_min":87,"x_max":608,"o":"m 87 0 l 87 87 l 608 87 l 608 0 l 87 0 z "},"`":{"ha":521,"x_min":174,"x_max":434,"o":"m 260 434 l 260 521 l 174 521 l 174 608 l 347 608 l 347 521 l 434 521 l 434 434 l 260 434 z "},"a":{"ha":694,"x_min":87,"x_max":608,"o":"m 434 347 l 434 434 l 174 434 l 174 521 l 521 521 l 521 434 l 608 434 l 608 0 l 174 0 l 174 87 l 87 87 l 87 260 l 174 260 l 174 347 l 87 347 l 87 434 l 174 434 l 174 347 l 434 347 m 434 87 l 434 260 l 260 260 l 260 87 l 434 87 z "},"b":{"ha":694,"x_min":87,"x_max":608,"o":"m 87 0 l 87 694 l 260 694 l 260 521 l 521 521 l 521 434 l 608 434 l 608 87 l 521 87 l 521 0 l 87 0 m 434 87 l 434 434 l 260 434 l 260 87 l 434 87 z "},"c":{"ha":694,"x_min":87,"x_max":608,"o":"m 174 0 l 174 87 l 87 87 l 87 434 l 174 434 l 174 521 l 521 521 l 521 434 l 260 434 l 260 87 l 521 87 l 521 0 l 174 0 m 521 347 l 521 434 l 608 434 l 608 347 l 521 347 m 521 87 l 521 174 l 608 174 l 608 87 l 521 87 z "},"d":{"ha":694,"x_min":87,"x_max":608,"o":"m 174 0 l 174 87 l 87 87 l 87 434 l 174 434 l 174 521 l 434 521 l 434 694 l 608 694 l 608 0 l 174 0 m 434 87 l 434 434 l 260 434 l 260 87 l 434 87 z "},"e":{"ha":694,"x_min":87,"x_max":608,"o":"m 174 0 l 174 87 l 87 87 l 87 434 l 174 434 l 174 521 l 521 521 l 521 434 l 608 434 l 608 260 l 260 260 l 260 87 l 521 87 l 521 0 l 174 0 m 434 347 l 434 434 l 260 434 l 260 347 l 434 347 m 521 87 l 521 174 l 608 174 l 608 87 l 521 87 z "},"f":{"ha":694,"x_min":87,"x_max":608,"o":"m 174 0 l 174 347 l 87 347 l 87 434 l 174 434 l 174 521 l 260 521 l 260 608 l 608 608 l 608 521 l 347 521 l 347 434 l 521 434 l 521 347 l 347 347 l 347 0 l 174 0 z "},"g":{"ha":694,"x_min":87,"x_max":608,"o":"m 434 0 l 434 87 l 174 87 l 174 174 l 87 174 l 87 434 l 174 434 l 174 521 l 608 521 l 608 0 l 521 0 l 521 -87 l 174 -87 l 174 0 l 87 0 l 87 87 l 174 87 l 174 0 l 434 0 m 434 174 l 434 434 l 260 434 l 260 174 l 434 174 z "},"h":{"ha":694,"x_min":87,"x_max":608,"o":"m 87 0 l 87 694 l 260 694 l 260 521 l 521 521 l 521 434 l 608 434 l 608 0 l 434 0 l 434 434 l 260 434 l 260 0 l 87 0 z "},"i":{"ha":347,"x_min":87,"x_max":260,"o":"m 87 521 l 87 608 l 260 608 l 260 521 l 87 521 m 87 0 l 87 434 l 260 434 l 260 0 l 87 0 z "},"j":{"ha":521,"x_min":87,"x_max":434,"o":"m 260 0 l 260 434 l 347 434 l 347 521 l 434 521 l 434 0 l 347 0 l 347 -87 l 174 -87 l 174 0 l 87 0 l 87 87 l 174 87 l 174 0 l 260 0 z "},"k":{"ha":694,"x_min":87,"x_max":608,"o":"m 87 0 l 87 608 l 260 608 l 260 347 l 347 347 l 347 260 l 434 260 l 434 174 l 521 174 l 521 87 l 608 87 l 608 0 l 434 0 l 434 87 l 347 87 l 347 174 l 260 174 l 260 0 l 87 0 m 434 434 l 434 521 l 521 521 l 521 434 l 434 434 m 347 347 l 347 434 l 434 434 l 434 347 l 347 347 z "},"l":{"ha":521,"x_min":87,"x_max":434,"o":"m 174 0 l 174 87 l 87 87 l 87 608 l 260 608 l 260 87 l 434 87 l 434 0 l 174 0 z "},"m":{"ha":781,"x_min":87,"x_max":694,"o":"m 87 0 l 87 521 l 608 521 l 608 434 l 694 434 l 694 0 l 521 0 l 521 434 l 434 434 l 434 87 l 347 87 l 347 434 l 260 434 l 260 0 l 87 0 z "},"n":{"ha":694,"x_min":87,"x_max":608,"o":"m 87 0 l 87 521 l 521 521 l 521 434 l 608 434 l 608 0 l 434 0 l 434 434 l 260 434 l 260 0 l 87 0 z "},"o":{"ha":694,"x_min":87,"x_max":608,"o":"m 174 0 l 174 87 l 87 87 l 87 434 l 174 434 l 174 521 l 521 521 l 521 434 l 608 434 l 608 87 l 521 87 l 521 0 l 174 0 m 434 87 l 434 434 l 260 434 l 260 87 l 434 87 z "},"p":{"ha":694,"x_min":87,"x_max":608,"o":"m 87 -87 l 87 521 l 521 521 l 521 434 l 608 434 l 608 174 l 521 174 l 521 87 l 260 87 l 260 -87 l 87 -87 m 434 174 l 434 434 l 260 434 l 260 174 l 434 174 z "},"q":{"ha":694,"x_min":87,"x_max":608,"o":"m 521 -174 l 521 -87 l 434 -87 l 434 0 l 174 0 l 174 87 l 87 87 l 87 434 l 174 434 l 174 521 l 608 521 l 608 -174 l 521 -174 m 434 87 l 434 434 l 260 434 l 260 87 l 434 87 z "},"r":{"ha":608,"x_min":87,"x_max":521,"o":"m 87 0 l 87 521 l 260 521 l 260 434 l 347 434 l 347 347 l 260 347 l 260 0 l 87 0 m 347 434 l 347 521 l 521 521 l 521 434 l 347 434 z "},"s":{"ha":694,"x_min":87,"x_max":608,"o":"m 347 87 l 347 174 l 260 174 l 260 260 l 174 260 l 174 347 l 87 347 l 87 434 l 174 434 l 174 521 l 521 521 l 521 434 l 347 434 l 347 347 l 434 347 l 434 260 l 521 260 l 521 174 l 608 174 l 608 87 l 521 87 l 521 0 l 174 0 l 174 87 l 87 87 l 87 174 l 174 174 l 174 87 l 347 87 m 521 347 l 521 434 l 608 434 l 608 347 l 521 347 z "},"t":{"ha":521,"x_min":87,"x_max":434,"o":"m 260 0 l 260 87 l 174 87 l 174 434 l 87 434 l 87 521 l 174 521 l 174 608 l 347 608 l 347 521 l 434 521 l 434 434 l 347 434 l 347 87 l 434 87 l 434 0 l 260 0 z "},"u":{"ha":694,"x_min":87,"x_max":608,"o":"m 174 0 l 174 87 l 87 87 l 87 521 l 260 521 l 260 87 l 434 87 l 434 521 l 608 521 l 608 0 l 174 0 z "},"v":{"ha":694,"x_min":87,"x_max":608,"o":"m 87 0 l 87 521 l 260 521 l 260 87 l 434 87 l 434 0 l 87 0 m 434 87 l 434 521 l 608 521 l 608 174 l 521 174 l 521 87 l 434 87 z "},"w":{"ha":781,"x_min":87,"x_max":694,"o":"m 87 0 l 87 521 l 260 521 l 260 87 l 347 87 l 347 304 l 434 304 l 434 87 l 521 87 l 521 521 l 694 521 l 694 87 l 608 87 l 608 0 l 87 0 z "},"x":{"ha":694,"x_min":87,"x_max":608,"o":"m 87 0 l 87 260 l 174 260 l 174 347 l 87 347 l 87 521 l 260 521 l 260 347 l 434 347 l 434 521 l 608 521 l 608 347 l 521 347 l 521 260 l 608 260 l 608 0 l 434 0 l 434 260 l 260 260 l 260 0 l 87 0 z "},"y":{"ha":694,"x_min":87,"x_max":608,"o":"m 434 0 l 434 87 l 260 87 l 260 174 l 174 174 l 174 260 l 87 260 l 87 521 l 260 521 l 260 174 l 434 174 l 434 521 l 608 521 l 608 0 l 521 0 l 521 -87 l 174 -87 l 174 0 l 87 0 l 87 87 l 174 87 l 174 0 l 434 0 z "},"z":{"ha":694,"x_min":87,"x_max":608,"o":"m 87 0 l 87 174 l 174 174 l 174 260 l 260 260 l 260 347 l 347 347 l 347 434 l 87 434 l 87 521 l 608 521 l 608 347 l 521 347 l 521 260 l 434 260 l 434 174 l 347 174 l 347 87 l 608 87 l 608 0 l 87 0 z "},"{":{"ha":434,"x_min":-87,"x_max":347,"o":"m 174 -87 l 174 0 l 87 0 l 87 87 l 0 87 l 0 260 l -87 260 l -87 347 l 0 347 l 0 521 l 87 521 l 87 608 l 174 608 l 174 694 l 347 694 l 347 608 l 260 608 l 260 521 l 174 521 l 174 347 l 87 347 l 87 260 l 174 260 l 174 87 l 260 87 l 260 0 l 347 0 l 347 -87 l 174 -87 z "},"|":{"ha":347,"x_min":87,"x_max":260,"o":"m 87 -87 l 87 694 l 260 694 l 260 -87 l 87 -87 z "},"}":{"ha":521,"x_min":0,"x_max":434,"o":"m 0 -87 l 0 0 l 87 0 l 87 87 l 174 87 l 174 260 l 260 260 l 260 347 l 174 347 l 174 521 l 87 521 l 87 608 l 0 608 l 0 694 l 174 694 l 174 608 l 260 608 l 260 521 l 347 521 l 347 347 l 434 347 l 434 260 l 347 260 l 347 87 l 260 87 l 260 0 l 174 0 l 174 -87 l 0 -87 z "},"~":{"ha":781,"x_min":87,"x_max":694,"o":"m 174 347 l 174 434 l 347 434 l 347 347 l 174 347 m 87 260 l 87 347 l 174 347 l 174 260 l 87 260 m 347 260 l 347 347 l 434 347 l 434 260 l 347 260 m 608 260 l 608 347 l 694 347 l 694 260 l 608 260 m 434 174 l 434 260 l 608 260 l 608 174 l 434 174 z "},"¡":{"ha":347,"x_min":87,"x_max":260,"o":"m 87 434 l 87 521 l 260 521 l 260 434 l 87 434 m 87 -87 l 87 347 l 260 347 l 260 -87 l 87 -87 z "},"¢":{"ha":694,"x_min":87,"x_max":608,"o":"m 347 -87 l 347 0 l 174 0 l 174 87 l 87 87 l 87 434 l 174 434 l 174 521 l 347 521 l 347 608 l 434 608 l 434 521 l 521 521 l 521 434 l 434 434 l 434 87 l 521 87 l 521 0 l 434 0 l 434 -87 l 347 -87 m 347 87 l 347 434 l 260 434 l 260 87 l 347 87 m 521 347 l 521 434 l 608 434 l 608 347 l 521 347 m 521 87 l 521 174 l 608 174 l 608 87 l 521 87 z "},"£":{"ha":781,"x_min":87,"x_max":694,"o":"m 87 0 l 87 87 l 174 87 l 174 521 l 260 521 l 260 608 l 608 608 l 608 521 l 694 521 l 694 434 l 521 434 l 521 521 l 347 521 l 347 347 l 608 347 l 608 260 l 347 260 l 347 87 l 694 87 l 694 0 l 87 0 z "},"¥":{"ha":694,"x_min":87,"x_max":608,"o":"m 260 0 l 260 87 l 87 87 l 87 174 l 260 174 l 260 260 l 87 260 l 87 347 l 174 347 l 174 434 l 87 434 l 87 608 l 260 608 l 260 434 l 434 434 l 434 608 l 608 608 l 608 434 l 521 434 l 521 347 l 608 347 l 608 260 l 434 260 l 434 174 l 608 174 l 608 87 l 434 87 l 434 0 l 260 0 z "},"¦":{"ha":434,"x_min":174,"x_max":347,"o":"m 174 347 l 174 608 l 347 608 l 347 347 l 174 347 m 174 0 l 174 260 l 347 260 l 347 0 l 174 0 z "},"§":{"ha":694,"x_min":87,"x_max":608,"o":"m 174 0 l 174 87 l 87 87 l 87 174 l 260 174 l 260 87 l 434 87 l 434 174 l 260 174 l 260 260 l 174 260 l 174 347 l 87 347 l 87 521 l 174 521 l 174 608 l 521 608 l 521 521 l 608 521 l 608 434 l 434 434 l 434 521 l 260 521 l 260 434 l 434 434 l 434 347 l 260 347 l 260 260 l 434 260 l 434 347 l 521 347 l 521 260 l 608 260 l 608 87 l 521 87 l 521 0 l 174 0 z "},"©":{"ha":781,"x_min":87,"x_max":694,"o":"m 260 434 l 260 521 l 521 521 l 521 434 l 260 434 m 174 347 l 174 434 l 260 434 l 260 347 l 174 347 m 521 347 l 521 434 l 608 434 l 608 347 l 521 347 m 87 87 l 87 347 l 174 347 l 174 87 l 87 87 m 347 260 l 347 347 l 521 347 l 521 260 l 347 260 m 608 87 l 608 347 l 694 347 l 694 87 l 608 87 m 260 174 l 260 260 l 347 260 l 347 174 l 260 174 m 347 87 l 347 174 l 521 174 l 521 87 l 347 87 m 174 0 l 174 87 l 260 87 l 260 0 l 174 0 m 521 0 l 521 87 l 608 87 l 608 0 l 521 0 m 260 -87 l 260 0 l 521 0 l 521 -87 l 260 -87 z "},"«":{"ha":868,"x_min":87,"x_max":781,"o":"m 260 87 l 260 174 l 174 174 l 174 260 l 87 260 l 87 347 l 174 347 l 174 434 l 260 434 l 260 521 l 434 521 l 434 434 l 347 434 l 347 347 l 260 347 l 260 260 l 347 260 l 347 174 l 434 174 l 434 87 l 260 87 m 608 87 l 608 174 l 521 174 l 521 260 l 434 260 l 434 347 l 521 347 l 521 434 l 608 434 l 608 521 l 781 521 l 781 434 l 694 434 l 694 347 l 608 347 l 608 260 l 694 260 l 694 174 l 781 174 l 781 87 l 608 87 z "},"°":{"ha":521,"x_min":174,"x_max":434,"o":"m 260 521 l 260 608 l 347 608 l 347 521 l 260 521 m 174 434 l 174 521 l 260 521 l 260 434 l 174 434 m 347 434 l 347 521 l 434 521 l 434 434 l 347 434 m 260 347 l 260 434 l 347 434 l 347 347 l 260 347 z "},"±":{"ha":608,"x_min":87,"x_max":521,"o":"m 260 174 l 260 347 l 87 347 l 87 434 l 260 434 l 260 608 l 347 608 l 347 434 l 521 434 l 521 347 l 347 347 l 347 174 l 260 174 m 87 0 l 87 87 l 521 87 l 521 0 l 87 0 z "},"´":{"ha":608,"x_min":260,"x_max":521,"o":"m 260 434 l 260 521 l 304 521 l 304 564 l 347 564 l 347 608 l 521 608 l 521 521 l 477 521 l 477 477 l 434 477 l 434 434 l 260 434 z "},"·":{"ha":434,"x_min":174,"x_max":347,"o":"m 174 260 l 174 434 l 347 434 l 347 260 l 174 260 z "},"»":{"ha":955,"x_min":174,"x_max":868,"o":"m 174 87 l 174 174 l 260 174 l 260 260 l 347 260 l 347 347 l 260 347 l 260 434 l 174 434 l 174 521 l 347 521 l 347 434 l 434 434 l 434 347 l 521 347 l 521 260 l 434 260 l 434 174 l 347 174 l 347 87 l 174 87 m 521 87 l 521 174 l 608 174 l 608 260 l 694 260 l 694 347 l 608 347 l 608 434 l 521 434 l 521 521 l 694 521 l 694 434 l 781 434 l 781 347 l 868 347 l 868 260 l 781 260 l 781 174 l 694 174 l 694 87 l 521 87 z "},"¿":{"ha":694,"x_min":87,"x_max":608,"o":"m 260 434 l 260 521 l 434 521 l 434 434 l 260 434 m 174 -87 l 174 0 l 87 0 l 87 174 l 174 174 l 174 260 l 260 260 l 260 347 l 434 347 l 434 260 l 347 260 l 347 174 l 260 174 l 260 0 l 434 0 l 434 174 l 608 174 l 608 0 l 521 0 l 521 -87 l 174 -87 z "},"×":{"ha":608,"x_min":87,"x_max":521,"o":"m 87 347 l 87 434 l 174 434 l 174 347 l 87 347 m 434 347 l 434 434 l 521 434 l 521 347 l 434 347 m 174 260 l 174 347 l 260 347 l 260 260 l 174 260 m 347 260 l 347 347 l 434 347 l 434 260 l 347 260 m 260 174 l 260 260 l 347 260 l 347 174 l 260 174 m 174 87 l 174 174 l 260 174 l 260 87 l 174 87 m 347 87 l 347 174 l 434 174 l 434 87 l 347 87 m 87 0 l 87 87 l 174 87 l 174 0 l 87 0 m 434 0 l 434 87 l 521 87 l 521 0 l 434 0 z "},"÷":{"ha":608,"x_min":87,"x_max":521,"o":"m 260 347 l 260 434 l 347 434 l 347 347 l 260 347 m 87 174 l 87 260 l 521 260 l 521 174 l 87 174 m 260 0 l 260 87 l 347 87 l 347 0 l 260 0 z "},"‘":{"ha":347,"x_min":87,"x_max":260,"o":"m 87 347 l 87 608 l 174 608 l 174 521 l 260 521 l 260 347 l 87 347 z "},"’":{"ha":347,"x_min":87,"x_max":260,"o":"m 174 347 l 174 434 l 87 434 l 87 608 l 260 608 l 260 347 l 174 347 z "},"“":{"ha":608,"x_min":87,"x_max":521,"o":"m 87 347 l 87 608 l 174 608 l 174 521 l 260 521 l 260 347 l 87 347 m 347 347 l 347 608 l 434 608 l 434 521 l 521 521 l 521 347 l 347 347 z "},"”":{"ha":608,"x_min":87,"x_max":521,"o":"m 174 347 l 174 434 l 87 434 l 87 608 l 260 608 l 260 347 l 174 347 m 434 347 l 434 434 l 347 434 l 347 608 l 521 608 l 521 347 l 434 347 z "},"•":{"ha":521,"x_min":174,"x_max":434,"o":"m 260 174 l 260 217 l 217 217 l 217 260 l 174 260 l 174 347 l 217 347 l 217 391 l 260 391 l 260 434 l 347 434 l 347 391 l 391 391 l 391 347 l 434 347 l 434 260 l 391 260 l 391 217 l 347 217 l 347 174 l 260 174 z "},"™":{"ha":1128,"x_min":347,"x_max":1042,"o":"m 434 434 l 434 608 l 347 608 l 347 694 l 651 694 l 651 608 l 521 608 l 521 434 l 434 434 m 694 434 l 694 694 l 998 694 l 998 608 l 1042 608 l 1042 434 l 955 434 l 955 608 l 911 608 l 911 434 l 825 434 l 825 608 l 781 608 l 781 434 l 694 434 z "}}}
